<svg xmlns="http://www.w3.org/2000/svg" version="1.1" id="Layer_1" x="0px" y="0px" width="100%" viewBox="0 0 600 79" enable-background="new 0 0 600 79" xml:space="preserve">
<path fill="#0F172A" opacity="1.000000" stroke="none" d=" M350.219238,74.493820   C337.697662,75.751785 328.245667,70.108665 324.226471,59.346176   C320.050781,48.164661 323.795624,35.148811 333.076385,28.586548   C340.960358,23.011929 350.257812,23.258274 359.919342,29.623693   C359.919342,25.747761 359.919312,22.186743 359.919312,18.625725   C359.919312,14.971176 359.919342,11.316628 359.919342,7.319398   C364.579193,7.319398 369.149719,7.319398 374.092773,7.319398   C374.092773,29.163042 374.092773,51.159271 374.092773,73.793671   C369.035828,72.735130 363.479523,75.912064 358.437805,71.163910   C356.348938,72.019325 353.485962,73.191711 350.219238,74.493820  M359.781006,51.160950   C359.676361,43.013348 356.060547,38.610203 349.136017,38.197987   C342.836731,37.822990 337.998413,41.934216 337.153839,48.379555   C336.397186,54.153950 340.061096,59.693466 345.452057,60.925842   C352.302521,62.491859 357.493073,59.208916 359.781006,51.160950  z" />
<path fill="#0F172A" opacity="1.000000" stroke="none" d=" M8.140731,6.976918   C12.418338,6.975681 16.210365,6.975681 20.351665,6.975681   C20.351665,19.939678 20.351665,32.462791 20.351665,46.395939   C24.869658,39.903481 28.740047,34.613537 32.288250,29.115660   C33.814514,26.750740 35.475536,25.763159 38.302578,25.933290   C42.401657,26.179974 46.526619,25.996500 51.518173,25.996500   C45.527695,34.169876 39.986351,41.730453 34.155880,49.685516   C39.871094,57.313053 45.678196,65.063217 52.163330,73.718285   C46.436504,73.718285 41.689083,73.935127 36.985703,73.575691   C35.706230,73.477913 34.330486,71.816628 33.391312,70.575897   C29.233515,65.083099 25.218647,59.482113 20.270132,52.714088   C20.270132,60.580425 20.270132,66.938110 20.270132,73.506020   C15.380658,73.506020 10.954137,73.506020 6.145782,73.506020   C6.053365,72.185043 5.888628,70.918663 5.887566,69.652153   C5.871225,50.174446 5.839222,30.696510 5.952843,11.219455   C5.961109,9.802425 7.062167,8.391772 8.140731,6.976918  z" />
<path fill="#0F172A" opacity="1.000000" stroke="none" d=" M425.447021,64.426506   C419.304382,54.623287 419.043915,44.954922 425.178284,35.569130   C430.934052,26.762661 441.875305,22.610989 452.333618,25.256458   C462.746124,27.890348 469.240814,34.675400 471.476807,45.312687   C473.582153,55.328304 468.487122,66.214615 459.218567,71.536835   C449.448364,77.147110 436.861420,75.719505 428.689972,68.033463   C427.604126,67.012093 426.673798,65.825371 425.447021,64.426506  M440.157104,40.275440   C435.315826,44.804527 434.064362,50.390980 436.779419,55.353111   C439.042999,59.490013 443.921021,61.665276 448.601685,60.625027   C455.170593,59.165131 458.860046,52.595253 456.791534,46.041122   C454.789917,39.698795 448.444061,37.266502 440.157104,40.275440  z" />
<path fill="#0F172A" opacity="1.000000" stroke="none" d=" M94.575722,35.683983   C103.391891,24.335249 117.355545,21.335712 128.964859,28.057919   C139.926361,34.405025 144.367172,47.886459 139.365021,59.630714   C133.723785,72.875488 117.804131,78.713287 104.612297,72.374687   C90.894623,65.783424 86.484520,50.143589 94.575722,35.683983  M124.494629,56.842209   C125.057594,55.663910 125.735229,54.525681 126.163437,53.300293   C127.902039,48.325054 126.588806,44.074661 122.530472,40.900284   C118.598953,37.825092 114.128342,37.863564 109.955643,40.298527   C105.582993,42.850178 104.322853,47.153252 105.071266,51.920498   C106.437981,60.626255 116.078812,63.391266 124.494629,56.842209  z" />
<path fill="#0F172A" opacity="1.000000" stroke="none" d=" M545.318115,25.044674   C546.213867,26.737219 546.966614,28.416683 547.069824,30.135174   C547.277649,33.594486 547.131653,37.075062 547.131653,40.622574   C544.851440,41.000000 542.743896,41.164837 540.742676,41.715771   C535.462402,43.169392 533.006104,46.296814 532.929932,51.764191   C532.830872,58.879208 532.905701,65.996643 532.905701,73.423798   C527.981750,73.423798 523.410400,73.423798 518.468628,73.423798   C518.468628,57.802837 518.468628,42.147018 518.468628,26.239452   C523.201904,26.239452 527.926941,26.239452 532.964233,26.239452   C532.964233,28.201593 532.964233,29.930208 532.964233,30.627008   C536.860596,28.803318 540.870911,26.926283 545.318115,25.044674  z" />
<path fill="#0F172A" opacity="1.000000" stroke="none" d=" M187.859482,66.903519   C187.859482,53.122997 187.859482,39.831749 187.859482,26.268696   C192.680054,26.268696 197.266754,26.268696 202.127869,26.268696   C202.205475,28.032057 202.284103,29.818871 202.333740,30.946468   C206.581635,28.737112 211.159439,26.356174 216.624664,23.513676   C216.624664,30.381638 216.624664,35.487820 216.624664,40.810661   C215.130493,40.916157 213.668732,40.909977 212.244675,41.138607   C205.633331,42.200043 202.451752,45.824314 202.327347,52.710258   C202.204346,59.518070 202.300476,66.329834 202.300476,73.432991   C197.420700,73.432991 192.864410,73.432991 187.859482,73.432991   C187.859482,71.307198 187.859482,69.349991 187.859482,66.903519  z" />
<path fill="#0F172A" opacity="1.000000" stroke="none" d=" M261.631470,33.024750   C261.631439,30.536335 261.631439,28.546017 261.631439,26.277779   C266.363861,26.277779 270.942719,26.277779 275.779724,26.277779   C275.779724,41.874153 275.779724,57.456188 275.779724,73.382050   C271.308105,73.382050 266.762268,73.382050 261.631470,73.382050   C261.631470,60.050190 261.631470,46.786518 261.631470,33.024750  z" />
<path fill="#0F172A" opacity="1.000000" stroke="none" d=" M264.533203,20.742989   C260.843903,17.788139 258.922974,14.533608 260.858368,10.119450   C262.499390,6.376728 265.449554,4.482100 269.535278,4.761220   C273.643280,5.041867 276.763885,7.342277 277.169403,11.325704   C277.434143,13.926348 276.420746,17.232735 274.807587,19.314661   C272.357269,22.477024 268.581146,22.787533 264.533203,20.742989  z" />
<path fill="#0F172A" opacity="1.000000" stroke="none" d=" M587.300659,72.923912   C587.292969,66.869255 587.292175,61.214329 587.295471,55.559406   C587.295654,55.227356 587.328674,54.895325 587.347839,54.563362   C595.827637,56.219677 598.766907,60.325840 597.234131,68.372330   C596.724854,71.045265 590.428833,74.185997 587.300659,72.923912  z" />
<path fill="#0F172A" opacity="1.000000" stroke="none" d=" M576.507446,59.078365   C579.644287,57.191128 582.497192,55.600731 585.759888,53.781853   C585.759888,60.959591 585.759888,67.617821 585.759888,74.322601   C575.791626,70.647011 575.791626,70.647011 576.507446,59.078365  z" />
</svg>