<?xml version="1.0" encoding="UTF-8"?>
<svg id="Layer_1" xmlns="http://www.w3.org/2000/svg" viewBox="0 0 549.81 113.64">
  <defs>
    <style>
      .cls-1 {
        fill: #1d4170;
      }

      .cls-2 {
        fill: #ffb733;
      }
    </style>
  </defs>
  <g>
    <path class="cls-1" d="M228.05,101.14V25.21h-14.76v87.16h54.06v-11.23h-39.3Z"/>
    <path class="cls-1" d="M309.1,101.14c-5.87,0-11.1-2.01-14.71-5.67-3.54-3.58-5.38-8.47-5.31-14.12v-.69h46.61c-.25-19.64-11.04-31.33-28.98-31.33-19.23,0-32.67,13.07-32.67,31.78s14.11,32.53,34.3,32.53c12.5,0,20.35-5.05,25.82-9.63l-8.13-10.38c-3.93,4.79-10.05,7.51-16.94,7.51ZM291.54,70.96c3.02-6.19,8.31-9.89,14.15-9.89s11.52,3.9,13.8,9.94l.37.95h-28.8l.49-1.01Z"/>
    <path class="cls-1" d="M377.87,80.98l21.71-30.37h-17.44l-11.39,19.9-11.52-19.9h-17.45l21.73,30.37-21.74,31.39h17.44l11.53-21.24,11.4,21.24h17.45l-21.74-31.39Z"/>
    <path class="cls-1" d="M441.82,63.99v-13.5h-14.4v-17.06h-13.76v6.36c0,4.27,1.95,7.12,6.15,8.98l.42.18v1.54h-14.03v13.5h7.46v32.41c0,10.47,5.97,16.98,15.6,16.98,4.64,0,8.76-1.52,12.57-4.67v-9.22c-1.45.72-3.39,1.39-6.01,1.39-5.17,0-8.4-3.98-8.4-10.42v-26.47h14.4Z"/>
    <path class="cls-1" d="M483.87,101.14c-5.87,0-11.08-2.01-14.71-5.67-3.54-3.58-5.38-8.47-5.32-14.12l.02-.69h46.6c-.26-19.64-11.04-31.33-28.99-31.33-19.23,0-32.66,13.07-32.66,31.78s14.11,32.53,34.3,32.53c12.5,0,20.36-5.05,25.81-9.63l-8.13-10.38c-3.93,4.79-10.05,7.51-16.93,7.51ZM466.32,70.96c3.01-6.19,8.3-9.89,14.15-9.89s11.52,3.9,13.79,9.94l.37.95h-28.79l.49-1.01Z"/>
    <path class="cls-1" d="M543.02,50.48c-5.29.28-10.53,4.63-10.74,9.91h-1.14v-9.92h-13.67v61.9h14.75v-33.11c0-7.18,5.85-15.14,14.99-15.14.86,0,1.74.06,2.6.18v-13.82c-2.42-.05-4.72-.11-6.79,0Z"/>
  </g>
  <g>
    <polygon class="cls-1" points="164 13.68 156.7 23.62 146.69 37.18 141.15 44.68 133.17 55.49 128.99 61.15 125.7 65.62 118.76 75.02 113.23 67.52 112.99 67.2 100.53 50.31 99.36 48.73 96.24 44.49 106.47 30.63 118.99 13.68 164 13.68"/>
    <polygon class="cls-1" points="91.44 51.01 67.8 83.04 90.31 113.55 137.59 113.55 91.44 51.01"/>
    <polygon class="cls-2" points="0 99.94 7.38 89.93 17.39 76.37 22.93 68.86 30.91 58.05 35.09 52.39 38.38 47.93 45.32 38.52 50.86 46.03 51.09 46.35 63.55 63.24 64.72 64.82 67.85 69.06 57.61 82.92 45.03 99.96 0 99.94"/>
    <polygon class="cls-2" points="72.64 62.54 96.28 30.5 73.77 0 26.49 0 72.64 62.54"/>
  </g>
</svg>